<?xml version="1.0" encoding="UTF-8"?>
<svg id="Calque_2" data-name="Calque 2" xmlns="http://www.w3.org/2000/svg" viewBox="0 0 519.01 134.99">
  <defs>
    <style>
      .cls-1 {
        fill: #facf16;
      }

      .cls-2 {
        fill: #ee2b2d;
      }

      .cls-3 {
        fill: #fff;
      }

      .cls-4 {
        fill: #009d49;
      }
    </style>
  </defs>
  <g id="Calque_1-2" data-name="Calque 1">
    <g>
      <path class="cls-3" d="M89.02,80.62c2.28,3.05,3.42,6.95,3.42,11.7,0,5.14-1.3,9.41-3.91,12.82-3.06,4-7.43,6-13.1,6-5.3,0-9.46-1.75-12.49-5.25-2.7-3.38-4.05-7.64-4.05-12.8,0-4.66,1.16-8.64,3.47-11.95,2.97-4.25,7.36-6.38,13.17-6.38s10.58,1.95,13.5,5.86Zm-4.11,21.95c1.84-2.95,2.75-6.34,2.75-10.17,0-4.05-1.06-7.31-3.18-9.78-2.12-2.47-5.01-3.71-8.68-3.71s-6.47,1.22-8.72,3.67c-2.25,2.45-3.38,6.06-3.38,10.83,0,3.82,.96,7.03,2.89,9.65s5.06,3.93,9.39,3.93,7.08-1.47,8.92-4.42Z"/>
      <path class="cls-3" d="M97.88,75.69h14.89c4.06,0,6.94,1.2,8.66,3.61,1.01,1.42,1.51,3.06,1.51,4.92,0,2.17-.62,3.95-1.85,5.34-.64,.73-1.56,1.41-2.77,2.02,1.77,.67,3.09,1.43,3.96,2.27,1.55,1.5,2.32,3.57,2.32,6.21,0,2.22-.7,4.23-2.1,6.02-2.09,2.69-5.42,4.03-9.98,4.03h-14.64v-34.43Zm13.14,14.55c1.99,0,3.54-.27,4.64-.82,1.74-.86,2.61-2.41,2.61-4.64s-.92-3.77-2.77-4.55c-1.04-.44-2.59-.66-4.64-.66h-8.41v10.66h8.57Zm1.58,15.89c2.89,0,4.94-.83,6.18-2.48,.77-1.05,1.16-2.31,1.16-3.8,0-2.5-1.13-4.2-3.38-5.11-1.2-.48-2.78-.73-4.76-.73h-9.35v12.12h10.15Z"/>
      <path class="cls-3" d="M133.06,99.01c.11,1.95,.55,3.54,1.33,4.76,1.49,2.28,4.12,3.42,7.88,3.42,1.69,0,3.22-.25,4.61-.75,2.68-.97,4.02-2.7,4.02-5.2,0-1.88-.57-3.21-1.7-4.01-1.15-.78-2.95-1.46-5.4-2.04l-4.52-1.05c-2.95-.69-5.04-1.45-6.27-2.27-2.12-1.44-3.18-3.59-3.18-6.45,0-3.09,1.04-5.63,3.12-7.62s5.03-2.98,8.85-2.98c3.51,0,6.5,.87,8.95,2.61s3.68,4.53,3.68,8.36h-4.38c-.22-1.84-.7-3.26-1.44-4.24-1.36-1.8-3.68-2.7-6.94-2.7-2.64,0-4.53,.58-5.69,1.73s-1.73,2.5-1.73,4.03c0,1.69,.68,2.92,2.04,3.7,.89,.5,2.91,1.12,6.06,1.88l4.68,1.1c2.26,.53,4,1.26,5.22,2.18,2.12,1.61,3.18,3.95,3.18,7.01,0,3.81-1.35,6.54-4.06,8.18-2.71,1.64-5.85,2.46-9.43,2.46-4.18,0-7.44-1.09-9.81-3.28-2.36-2.17-3.52-5.12-3.47-8.84h4.38Z"/>
      <path class="cls-3" d="M162.48,75.69h24.98v4.22h-20.44v10.45h18.89v3.98h-18.89v11.67h20.79v4.1h-25.34v-34.43Z"/>
      <path class="cls-3" d="M194.61,75.69h15.65c2.58,0,4.7,.38,6.38,1.15,3.18,1.47,4.76,4.18,4.76,8.13,0,2.06-.43,3.75-1.28,5.06s-2.04,2.37-3.57,3.16c1.34,.55,2.36,1.27,3.04,2.16s1.06,2.34,1.14,4.34l.16,4.62c.05,1.31,.16,2.29,.33,2.93,.28,1.09,.78,1.8,1.5,2.11v.77h-5.72c-.16-.3-.28-.68-.38-1.15s-.17-1.38-.23-2.72l-.28-5.74c-.11-2.25-.92-3.76-2.44-4.52-.87-.42-2.22-.63-4.08-.63h-10.32v14.77h-4.66v-34.43Zm15.15,15.77c2.13,0,3.81-.44,5.05-1.31,1.24-.88,1.86-2.45,1.86-4.73,0-2.45-.87-4.12-2.6-5.02-.93-.47-2.17-.7-3.72-.7h-11.08v11.77h10.48Z"/>
      <path class="cls-3" d="M230.6,75.69l9.89,29.32,9.77-29.32h5.23l-12.56,34.43h-4.95l-12.54-34.43h5.16Z"/>
      <path class="cls-3" d="M266.35,75.69h5.27l12.49,34.43h-5.11l-3.49-10.31h-13.62l-3.73,10.31h-4.78l12.96-34.43Zm7.66,20.32l-5.23-15.21-5.55,15.21h10.78Z"/>
      <path class="cls-3" d="M309.85,75.69v4.1h-11.6v30.33h-4.71v-30.33h-11.6v-4.1h27.91Z"/>
      <path class="cls-3" d="M341.66,80.62c2.28,3.05,3.42,6.95,3.42,11.7,0,5.14-1.3,9.41-3.91,12.82-3.06,4-7.43,6-13.1,6-5.3,0-9.46-1.75-12.49-5.25-2.7-3.38-4.05-7.64-4.05-12.8,0-4.66,1.16-8.64,3.47-11.95,2.97-4.25,7.36-6.38,13.17-6.38s10.58,1.95,13.5,5.86Zm-4.11,21.95c1.84-2.95,2.75-6.34,2.75-10.17,0-4.05-1.06-7.31-3.18-9.78-2.12-2.47-5.01-3.71-8.68-3.71s-6.47,1.22-8.72,3.67c-2.25,2.45-3.38,6.06-3.38,10.83,0,3.82,.96,7.03,2.89,9.65s5.06,3.93,9.39,3.93,7.08-1.47,8.92-4.42Z"/>
      <path class="cls-3" d="M351.69,75.69h4.71v34.43h-4.71v-34.43Z"/>
      <path class="cls-3" d="M364.53,75.69h15.65c2.58,0,4.7,.38,6.38,1.15,3.18,1.47,4.76,4.18,4.76,8.13,0,2.06-.43,3.75-1.28,5.06s-2.04,2.37-3.57,3.16c1.34,.55,2.36,1.27,3.04,2.16s1.06,2.34,1.14,4.34l.16,4.62c.05,1.31,.16,2.29,.33,2.93,.28,1.09,.78,1.8,1.5,2.11v.77h-5.72c-.16-.3-.28-.68-.38-1.15s-.17-1.38-.23-2.72l-.28-5.74c-.11-2.25-.92-3.76-2.44-4.52-.87-.42-2.22-.63-4.08-.63h-10.32v14.77h-4.66v-34.43Zm15.15,15.77c2.13,0,3.81-.44,5.05-1.31,1.24-.88,1.86-2.45,1.86-4.73,0-2.45-.87-4.12-2.6-5.02-.93-.47-2.17-.7-3.71-.7h-11.08v11.77h10.48Z"/>
      <path class="cls-3" d="M399.08,75.69h24.98v4.22h-20.44v10.45h18.89v3.98h-18.89v11.67h20.79v4.1h-25.34v-34.43Z"/>
      <path class="cls-3" d="M447.03,99.01c.11,1.95,.55,3.54,1.33,4.76,1.49,2.28,4.12,3.42,7.88,3.42,1.69,0,3.22-.25,4.61-.75,2.68-.97,4.02-2.7,4.02-5.2,0-1.88-.57-3.21-1.7-4.01-1.15-.78-2.95-1.46-5.4-2.04l-4.52-1.05c-2.95-.69-5.04-1.45-6.27-2.27-2.12-1.44-3.18-3.59-3.18-6.45,0-3.09,1.04-5.63,3.12-7.62,2.08-1.98,5.03-2.98,8.85-2.98,3.51,0,6.5,.87,8.95,2.61,2.46,1.74,3.68,4.53,3.68,8.36h-4.38c-.22-1.84-.7-3.26-1.44-4.24-1.36-1.8-3.68-2.7-6.94-2.7-2.64,0-4.53,.58-5.68,1.73-1.15,1.16-1.73,2.5-1.73,4.03,0,1.69,.68,2.92,2.04,3.7,.89,.5,2.91,1.12,6.06,1.88l4.68,1.1c2.26,.53,4,1.26,5.22,2.18,2.12,1.61,3.18,3.95,3.18,7.01,0,3.81-1.35,6.54-4.06,8.18-2.7,1.64-5.85,2.46-9.43,2.46-4.18,0-7.44-1.09-9.81-3.28-2.36-2.17-3.52-5.12-3.47-8.84h4.38Z"/>
      <path class="cls-3" d="M477.05,75.69h4.71v34.43h-4.71v-34.43Z"/>
      <path class="cls-3" d="M512.25,76.68c3.37,1.8,5.44,4.95,6.19,9.45h-4.62c-.55-2.52-1.69-4.35-3.42-5.5s-3.91-1.72-6.54-1.72c-3.12,0-5.75,1.2-7.88,3.59-2.13,2.39-3.2,5.95-3.2,10.69,0,4.09,.88,7.43,2.64,10s4.63,3.86,8.61,3.86c3.05,0,5.57-.9,7.57-2.71,2-1.8,3.02-4.72,3.07-8.75h-10.78v-3.87h15.12v18.42h-3l-1.12-4.43c-1.55,1.73-2.93,2.94-4.13,3.61-2.01,1.16-4.57,1.73-7.68,1.73-4.01,0-7.46-1.32-10.35-3.96-3.15-3.31-4.73-7.86-4.73-13.64s1.54-10.35,4.62-13.76c2.93-3.25,6.71-4.88,11.37-4.88,3.19,0,5.94,.62,8.27,1.88Z"/>
    </g>
    <g>
      <path class="cls-3" d="M206.05,119.03c.9-.19,2.31-.33,3.75-.33,2.05,0,3.38,.35,4.37,1.16,.83,.61,1.32,1.56,1.32,2.81,0,1.53-1.02,2.88-2.69,3.49v.05c1.51,.38,3.28,1.63,3.28,3.99,0,1.37-.54,2.41-1.35,3.19-1.11,1.02-2.9,1.49-5.5,1.49-1.42,0-2.5-.09-3.19-.19v-15.65Zm2.05,6.51h1.86c2.17,0,3.45-1.13,3.45-2.67,0-1.87-1.42-2.6-3.49-2.6-.94,0-1.49,.07-1.82,.14v5.12Zm0,7.62c.4,.07,.99,.09,1.72,.09,2.12,0,4.08-.78,4.08-3.09,0-2.17-1.87-3.07-4.11-3.07h-1.7v6.07Z"/>
      <path class="cls-3" d="M220.9,118.82v9.42c0,3.56,1.58,5.08,3.71,5.08,2.36,0,3.87-1.56,3.87-5.08v-9.42h2.08v9.28c0,4.89-2.57,6.89-6.02,6.89-3.26,0-5.71-1.87-5.71-6.8v-9.37h2.08Z"/>
      <path class="cls-3" d="M234.11,119.03c1.04-.21,2.53-.33,3.94-.33,2.19,0,3.61,.4,4.6,1.3,.8,.71,1.25,1.79,1.25,3.02,0,2.1-1.32,3.49-3,4.06v.07c1.23,.42,1.96,1.56,2.34,3.21,.52,2.22,.9,3.75,1.23,4.37h-2.12c-.26-.45-.61-1.82-1.06-3.8-.47-2.2-1.32-3.02-3.19-3.09h-1.94v6.89h-2.05v-15.7Zm2.05,7.25h2.1c2.2,0,3.59-1.2,3.59-3.02,0-2.05-1.49-2.95-3.66-2.97-.99,0-1.7,.09-2.03,.19v5.81Z"/>
      <path class="cls-3" d="M246.81,118.82h2.05v7.67h.07c.42-.61,.85-1.18,1.25-1.7l4.86-5.97h2.55l-5.76,6.75,6.21,9.16h-2.43l-5.24-7.81-1.51,1.75v6.07h-2.05v-15.91Z"/>
      <path class="cls-3" d="M261.66,118.82v15.91h-2.05v-15.91h2.05Z"/>
      <path class="cls-3" d="M265.25,134.73v-15.91h2.24l5.1,8.05c1.18,1.86,2.1,3.54,2.86,5.17l.05-.02c-.19-2.12-.24-4.06-.24-6.54v-6.66h1.94v15.91h-2.08l-5.05-8.07c-1.11-1.77-2.17-3.59-2.97-5.31l-.07,.02c.12,2.01,.17,3.92,.17,6.56v6.8h-1.94Z"/>
      <path class="cls-3" d="M283.35,129.73l-1.65,5h-2.12l5.41-15.91h2.48l5.43,15.91h-2.2l-1.7-5h-5.64Zm5.22-1.61l-1.56-4.58c-.35-1.04-.59-1.98-.83-2.9h-.05c-.24,.94-.5,1.91-.8,2.88l-1.56,4.6h4.79Z"/>
      <path class="cls-3" d="M300.22,118.82h8.57v1.72h-6.51v5.29h6.02v1.7h-6.02v7.2h-2.05v-15.91Z"/>
      <path class="cls-3" d="M312.45,129.73l-1.65,5h-2.12l5.41-15.91h2.48l5.43,15.91h-2.2l-1.7-5h-5.64Zm5.22-1.61l-1.56-4.58c-.35-1.04-.59-1.98-.83-2.9h-.05c-.24,.94-.5,1.91-.8,2.88l-1.56,4.6h4.79Z"/>
      <path class="cls-3" d="M324.04,132.23c.92,.57,2.27,1.04,3.68,1.04,2.1,0,3.33-1.11,3.33-2.71,0-1.49-.85-2.34-3-3.16-2.6-.92-4.2-2.27-4.2-4.51,0-2.48,2.05-4.32,5.15-4.32,1.63,0,2.81,.38,3.52,.78l-.57,1.68c-.52-.28-1.58-.75-3.02-.75-2.17,0-3,1.3-3,2.38,0,1.49,.97,2.22,3.16,3.07,2.69,1.04,4.06,2.34,4.06,4.67,0,2.46-1.82,4.58-5.57,4.58-1.53,0-3.21-.45-4.06-1.02l.52-1.72Z"/>
      <path class="cls-3" d="M349.55,126.61c0,5.48-3.33,8.38-7.39,8.38s-7.15-3.26-7.15-8.07c0-5.05,3.14-8.36,7.39-8.36s7.15,3.33,7.15,8.05Zm-12.35,.26c0,3.4,1.84,6.44,5.08,6.44s5.1-3,5.1-6.61c0-3.16-1.65-6.47-5.08-6.47s-5.1,3.14-5.1,6.63Z"/>
    </g>
    <path class="cls-3" d="M48.55,23.63c7.05,0,13.43,2.86,18.05,7.48,4.61,4.61,7.48,11.01,7.48,18.05s-2.86,13.43-7.48,18.05c-4.62,4.62-11,7.48-18.05,7.48s-13.43-2.86-18.05-7.48c-4.61-4.61-7.48-11-7.48-18.05s2.86-13.44,7.48-18.05c4.62-4.61,11-7.48,18.05-7.48h0Zm1.45,99.36c2.07-1.31,4.08-2.72,6.02-4.21,1.03,1.65,2.19,3.19,3.47,4.64-2.49,1.9-5.08,3.67-7.78,5.32-.94,.71-2.26,.81-3.32,.14-11.36-7.22-20.89-15.92-28.41-25.34C9.63,90.55,3.1,76.13,.87,62.27c-2.27-14.07-.13-27.6,6.86-38.61,2.75-4.34,6.28-8.29,10.59-11.72C28.18,4.07,39.48-.09,50.69,0c10.8,.09,21.5,4.12,30.74,12.56,3.24,2.95,5.97,6.32,8.2,9.98,7.44,12.27,9.12,27.91,5.94,43.77-1.83-.53-3.74-.92-5.68-1.14,2.9-14.5,1.45-28.66-5.21-39.64-1.96-3.22-4.36-6.15-7.15-8.69-8.14-7.43-17.5-10.98-26.89-11.05-9.86-.08-19.88,3.64-28.71,10.67-3.77,3.01-6.87,6.48-9.29,10.3-6.21,9.78-8.08,21.9-6.04,34.59,2.07,12.88,8.2,26.35,17.93,38.56,6.78,8.5,15.32,16.4,25.47,23.06h0Zm12.48-87.77c-3.56-3.56-8.49-5.77-13.93-5.77s-10.37,2.21-13.93,5.77c-3.56,3.56-5.77,8.5-5.77,13.94s2.21,10.37,5.77,13.93c3.56,3.56,8.49,5.77,13.93,5.77s10.37-2.21,13.93-5.77c3.56-3.56,5.77-8.49,5.77-13.93s-2.21-10.38-5.77-13.94h0Z"/>
    <g>
      <path class="cls-4" d="M69.25,49.15v1.9c-.09,.53-.19,1.06-.28,1.6-.81,4.56-2.88,8.44-6.25,11.61-3.1,2.91-6.76,4.69-10.96,5.36-.46,.07-.93,.16-1.39,.24h-3.73c-.08-.03-.16-.08-.25-.09-.91-.16-1.83-.28-2.72-.48-7.88-1.82-14.15-8.48-15.51-16.42-.1-.6-.21-1.2-.32-1.8,0-.63,0-1.27,0-1.9,5.35,0,10.7,0,16.04,0,.32,0,.63,0,.95-.01q1.23,.73,.8,2.04s-.02,.05-.03,.08c-.37,1.14-.73,2.27-1.13,3.5,.24-.17,.39-.28,.55-.39,1.08-.79,2.17-1.57,3.24-2.36,.21-.16,.35-.17,.57,0,1.08,.81,2.18,1.6,3.27,2.39,.12,.09,.24,.16,.47,.32-.06-.25-.09-.38-.13-.5-.42-1.31-.84-2.62-1.28-3.93-.07-.22-.06-.35,.14-.48,.33-.21,.63-.44,.95-.66,.17,0,.33,.01,.5,.01,5.5,0,11,0,16.5,0Z"/>
      <path class="cls-2" d="M44.84,49.14c-.32,0-.63,.01-.95,.01-5.35,0-10.7,0-16.04,0,0-.63,0-1.27,0-1.9,.09-.53,.19-1.06,.28-1.6,.81-4.56,2.88-8.44,6.25-11.6,3.09-2.91,6.76-4.69,10.96-5.36,.47-.07,.93-.16,1.39-.24,1.21,0,2.43,0,3.64,0,.56,.09,1.12,.18,1.68,.28,4.56,.81,8.44,2.88,11.6,6.25,2.91,3.1,4.69,6.76,5.36,10.96,.07,.47,.16,.93,.24,1.39v1.82c-5.5,0-11,0-16.5,0-.17,0-.33,0-.5-.01,.93-.69,1.85-1.38,2.88-2.14-1.64,0-3.14,0-4.64,0-.31,0-.43-.1-.52-.39-.41-1.31-.84-2.62-1.27-3.93-.03-.11-.09-.21-.17-.39-.08,.21-.12,.34-.17,.46-.42,1.28-.84,2.56-1.25,3.85-.09,.28-.21,.39-.52,.38-1.38-.02-2.76,0-4.14,0-.13,0-.26,.01-.48,.02,1,.74,1.93,1.43,2.85,2.12Z"/>
      <path class="cls-1" d="M44.84,49.14c-.92-.69-1.85-1.37-2.85-2.12,.22-.01,.35-.02,.48-.02,1.38,0,2.76-.01,4.14,0,.31,0,.43-.1,.52-.38,.4-1.29,.83-2.57,1.25-3.85,.04-.13,.09-.25,.17-.46,.08,.18,.13,.28,.17,.39,.43,1.31,.86,2.62,1.27,3.93,.09,.28,.21,.39,.52,.39,1.5-.02,3,0,4.64,0-1.02,.76-1.95,1.45-2.88,2.14-.32,.22-.63,.45-.95,.66-.21,.13-.21,.26-.14,.48,.43,1.31,.85,2.62,1.28,3.93,.04,.12,.07,.25,.13,.5-.23-.15-.35-.23-.47-.32-1.09-.79-2.19-1.58-3.27-2.39-.22-.16-.36-.15-.57,0-1.07,.8-2.16,1.58-3.24,2.36-.15,.11-.31,.22-.55,.39,.4-1.23,.77-2.37,1.13-3.5,0-.03,.02-.05,.03-.08q.43-1.31-.8-2.04Z"/>
    </g>
    <path class="cls-3" d="M62.34,94.01c.27,.27,.72,.27,.99,0,2.46-2.46,5.51-4.11,8.82-4.82-.94,.96-1.52,2.27-1.52,3.71,0,2.93,2.38,5.31,5.31,5.31s5.31-2.38,5.31-5.31c0-1.44-.58-2.75-1.52-3.71,3.32,.72,6.36,2.37,8.82,4.82,.14,.14,.32,.21,.49,.21s.36-.07,.49-.21c.27-.27,.27-.72,0-.99-3.64-3.64-8.47-5.64-13.61-5.64s-9.97,2-13.61,5.64c-.27,.27-.27,.72,0,.99Zm17.52-1.11c0,2.16-1.76,3.91-3.91,3.91s-3.91-1.76-3.91-3.91,1.76-3.91,3.91-3.91,3.91,1.76,3.91,3.91Z"/>
  </g>
</svg>