<?xml version="1.0" encoding="UTF-8"?>
<svg id="Calque_2" data-name="Calque 2" xmlns="http://www.w3.org/2000/svg" viewBox="0 0 97.1 129.33">
  <defs>
    <style>
      .cls-1 {
        fill: #facf16;
      }

      .cls-2 {
        fill: #ee2b2d;
      }

      .cls-3 {
        fill: #fff;
      }

      .cls-4 {
        fill: #009d49;
      }
    </style>
  </defs>
  <g id="Calque_2-2" data-name="Calque 2">
    <g id="Calque_1-2" data-name="Calque 1-2">
      <path class="cls-3" d="M89.02,80.62c2.28,3.05,3.42,6.95,3.42,11.7,0,5.14-1.3,9.41-3.91,12.82-3.06,4-7.43,6-13.1,6-5.3,0-9.46-1.75-12.49-5.25-2.7-3.38-4.05-7.64-4.05-12.8,0-4.66,1.16-8.64,3.47-11.95,2.97-4.25,7.36-6.38,13.17-6.38s10.58,1.95,13.5,5.86h-.01Zm-4.11,21.95c1.84-2.95,2.75-6.34,2.75-10.17,0-4.05-1.06-7.31-3.18-9.78s-5.01-3.71-8.68-3.71-6.47,1.22-8.72,3.67-3.38,6.06-3.38,10.83c0,3.82,.96,7.03,2.89,9.65s5.06,3.93,9.39,3.93,7.08-1.47,8.92-4.42h.01Z"/>
      <path class="cls-3" d="M48.55,23.63c7.05,0,13.43,2.86,18.05,7.48,4.61,4.61,7.48,11.01,7.48,18.05s-2.86,13.43-7.48,18.05c-4.62,4.62-11,7.48-18.05,7.48s-13.43-2.86-18.05-7.48c-4.61-4.61-7.48-11-7.48-18.05s2.86-13.44,7.48-18.05,11-7.48,18.05-7.48h0Zm1.45,99.36c2.07-1.31,4.08-2.72,6.02-4.21,1.03,1.65,2.19,3.19,3.47,4.64-2.49,1.9-5.08,3.67-7.78,5.32-.94,.71-2.26,.81-3.32,.14-11.36-7.22-20.89-15.92-28.41-25.34C9.63,90.55,3.1,76.13,.87,62.27c-2.27-14.07-.13-27.6,6.86-38.61,2.75-4.34,6.28-8.29,10.59-11.72C28.18,4.07,39.48-.09,50.69,0c10.8,.09,21.5,4.12,30.74,12.56,3.24,2.95,5.97,6.32,8.2,9.98,7.44,12.27,9.12,27.91,5.94,43.77-1.83-.53-3.74-.92-5.68-1.14,2.9-14.5,1.45-28.66-5.21-39.64-1.96-3.22-4.36-6.15-7.15-8.69-8.14-7.43-17.5-10.98-26.89-11.05-9.86-.08-19.88,3.64-28.71,10.67-3.77,3.01-6.87,6.48-9.29,10.3-6.21,9.78-8.08,21.9-6.04,34.59,2.07,12.88,8.2,26.35,17.93,38.56,6.78,8.5,15.32,16.4,25.47,23.06h0v.02Zm12.48-87.77c-3.56-3.56-8.49-5.77-13.93-5.77s-10.37,2.21-13.93,5.77c-3.56,3.56-5.77,8.5-5.77,13.94s2.21,10.37,5.77,13.93,8.49,5.77,13.93,5.77,10.37-2.21,13.93-5.77,5.77-8.49,5.77-13.93-2.21-10.38-5.77-13.94h0Z"/>
      <g>
        <path class="cls-4" d="M69.25,49.15v1.9c-.09,.53-.19,1.06-.28,1.6-.81,4.56-2.88,8.44-6.25,11.61-3.1,2.91-6.76,4.69-10.96,5.36-.46,.07-.93,.16-1.39,.24h-3.73c-.08-.03-.16-.08-.25-.09-.91-.16-1.83-.28-2.72-.48-7.88-1.82-14.15-8.48-15.51-16.42-.1-.6-.21-1.2-.32-1.8v-1.9h16.04c.32,0,.63,0,.95,0,.82,.49,1.09,1.17,.8,2.04-.43,1.31-.02,.05-.03,.08-.37,1.14-.73,2.27-1.13,3.5,.24-.17,.39-.28,.55-.39,1.08-.79,2.17-1.57,3.24-2.36,.21-.16,.35-.17,.57,0,1.08,.81,2.18,1.6,3.27,2.39,.12,.09,.24,.16,.47,.32-.06-.25-.09-.38-.13-.5-.42-1.31-.84-2.62-1.28-3.93-.07-.22-.06-.35,.14-.48,.33-.21,.63-.44,.95-.66,.17,0,.33,0,.5,0h16.5v-.03Z"/>
        <path class="cls-2" d="M44.84,49.14c-.32,0-.63,0-.95,0H27.85v-1.9c.09-.53,.19-1.06,.28-1.6,.81-4.56,2.88-8.44,6.25-11.6,3.09-2.91,6.76-4.69,10.96-5.36,.47-.07,.93-.16,1.39-.24h3.64c.56,.09,1.12,.18,1.68,.28,4.56,.81,8.44,2.88,11.6,6.25,2.91,3.1,4.69,6.76,5.36,10.96,.07,.47,.16,.93,.24,1.39v1.82h-16.5c-.17,0-.33,0-.5,0,.93-.69,1.85-1.38,2.88-2.14h-4.64c-.31,0-.43-.1-.52-.39-.41-1.31-.84-2.62-1.27-3.93-.03-.11-.09-.21-.17-.39-.08,.21-.12,.34-.17,.46-.42,1.28-.84,2.56-1.25,3.85-.09,.28-.21,.39-.52,.38-1.38-.02-2.76,0-4.14,0-.13,0-.26,0-.48,.02,1,.74,1.93,1.43,2.85,2.12l.02,.02Z"/>
        <path class="cls-1" d="M44.84,49.14c-.92-.69-1.85-1.37-2.85-2.12,.22,0,.35-.02,.48-.02,1.38,0,2.76,0,4.14,0,.31,0,.43-.1,.52-.38,.4-1.29,.83-2.57,1.25-3.85,.04-.13,.09-.25,.17-.46,.08,.18,.13,.28,.17,.39,.43,1.31,.86,2.62,1.27,3.93,.09,.28,.21,.39,.52,.39,1.5-.02,3,0,4.64,0-1.02,.76-1.95,1.45-2.88,2.14-.32,.22-.63,.45-.95,.66-.21,.13-.21,.26-.14,.48,.43,1.31,.85,2.62,1.28,3.93,.04,.12,.07,.25,.13,.5-.23-.15-.35-.23-.47-.32-1.09-.79-2.19-1.58-3.27-2.39-.22-.16-.36-.15-.57,0-1.07,.8-2.16,1.58-3.24,2.36-.15,.11-.31,.22-.55,.39,.4-1.23,.77-2.37,1.13-3.5,0-.03,.02-.05,.03-.08,.29-.87,.02-1.55-.8-2.04h0Z"/>
      </g>
      <path class="cls-3" d="M62.34,94.01c.27,.27,.72,.27,.99,0,2.46-2.46,5.51-4.11,8.82-4.82-.94,.96-1.52,2.27-1.52,3.71,0,2.93,2.38,5.31,5.31,5.31s5.31-2.38,5.31-5.31c0-1.44-.58-2.75-1.52-3.71,3.32,.72,6.36,2.37,8.82,4.82,.14,.14,.32,.21,.49,.21s.36-.07,.49-.21c.27-.27,.27-.72,0-.99-3.64-3.64-8.47-5.64-13.61-5.64s-9.97,2-13.61,5.64c-.27,.27-.27,.72,0,.99h.03Zm17.52-1.11c0,2.16-1.76,3.91-3.91,3.91s-3.91-1.76-3.91-3.91,1.76-3.91,3.91-3.91,3.91,1.76,3.91,3.91Z"/>
    </g>
  </g>
</svg>