<?xml version="1.0" encoding="utf-8"?>
<!-- Generator: Adobe Illustrator 27.0.0, SVG Export Plug-In . SVG Version: 6.00 Build 0)  -->
<svg version="1.1" id="Calque_2_00000049927333229117192290000015740908789854841750_"
	 xmlns="http://www.w3.org/2000/svg" xmlns:xlink="http://www.w3.org/1999/xlink" x="0px" y="0px" viewBox="0 0 800 800"
	 style="enable-background:new 0 0 800 800;" xml:space="preserve">
<style type="text/css">
	.st0{fill:#FFFFFF;}
</style>
<g id="Layer_1">
	<path class="st0" d="M400,0C179.4,0,0,179.4,0,400s179.4,400,400,400s400-179.4,400-400S620.6,0,400,0z M402.6,125.7
		c82.1,0,148.8,78.6,148.8,175.7s-66.6,175.7-148.8,175.7s-148.8-78.7-148.8-175.7C253.8,204.3,320.4,125.7,402.6,125.7L402.6,125.7
		z M400,751.4c-98.8,0-188.1-41-252.1-106.8c-9.1-9.3-11.9-23.1-7.4-35.3c21.9-58.2,62.9-107,115.3-139c11.3-6.9,25.8-5.6,35.6,3.3
		c30.8,27.8,69.3,44.5,111.1,44.5s78.8-16,109.3-42.9c9.9-8.8,24.5-9.9,35.7-2.8c50.8,32,90.5,80,111.9,137
		c4.6,12.2,1.7,25.9-7.4,35.3C588.2,710.5,498.8,751.5,400,751.4L400,751.4z"/>
</g>
</svg>
